<svg width="192" height="20" viewBox="0 0 192 20" fill="none" xmlns="http://www.w3.org/2000/svg">
<rect x="6" y="3" width="44" height="14" fill="#D9D9D9"/>
<rect x="64" y="3" width="121" height="14" fill="#D9D9D9"/>
<path fill-rule="evenodd" clip-rule="evenodd" d="M0 9.99992C0 4.47712 4.47712 0 9.99992 0H43.1461C47.657 0 51.4703 2.98677 52.7162 7.09058C52.9022 7.703 53.442 8.16325 54.082 8.16325C54.722 8.16325 55.2619 7.70302 55.4478 7.0906C56.6938 2.98687 60.507 0.000163078 65.0179 0.000163078H182C187.523 0.000163078 192 4.47728 192 10.0001C192 15.5229 187.523 20 182 20H65.0179C60.507 20 56.6937 17.0132 55.4477 12.9094C55.2618 12.2969 54.722 11.8367 54.082 11.8367C53.442 11.8367 52.9021 12.2969 52.7162 12.9093C51.4702 17.0131 47.657 19.9998 43.1461 19.9998H9.99993C4.47713 19.9998 0 15.5227 0 9.99992ZM68.3602 16V4.36364H72.7238C73.6178 4.36364 74.3678 4.5303 74.9738 4.86364C75.5837 5.19697 76.0439 5.6553 76.3545 6.23864C76.6689 6.81818 76.8261 7.47727 76.8261 8.21591C76.8261 8.96212 76.6689 9.625 76.3545 10.2045C76.0401 10.7841 75.5761 11.2405 74.9625 11.5739C74.3488 11.9034 73.5932 12.0682 72.6954 12.0682H70.4682V16H68.3602ZM72.4113 10.3352H70.4682V6.125H72.4C72.9265 6.125 73.3564 6.21402 73.6898 6.39205C74.0269 6.56629 74.275 6.81061 74.4341 7.125C74.5969 7.43939 74.6784 7.80303 74.6784 8.21591C74.6784 8.62879 74.5969 8.99432 74.4341 9.3125C74.275 9.63068 74.0288 9.88068 73.6954 10.0625C73.3621 10.2443 72.9341 10.3352 72.4113 10.3352ZM86.8545 16H84.6045L88.7011 4.36364H91.3034L95.4057 16H93.1557L92.1916 13.1307H87.8168L86.8545 16ZM90.0477 6.75L91.6227 11.4375H88.3847L89.9568 6.75H90.0477ZM111.075 7.5625C111.022 7.06629 110.798 6.67992 110.404 6.40341C110.014 6.12689 109.507 5.98864 108.882 5.98864C108.442 5.98864 108.065 6.05492 107.751 6.1875C107.436 6.32008 107.196 6.5 107.029 6.72727C106.863 6.95455 106.777 7.21402 106.774 7.50568C106.774 7.74811 106.828 7.95833 106.938 8.13636C107.052 8.31439 107.205 8.46591 107.399 8.59091C107.592 8.71212 107.806 8.81439 108.041 8.89773C108.275 8.98106 108.512 9.05114 108.751 9.10795L109.842 9.38068C110.281 9.48295 110.703 9.62121 111.109 9.79545C111.518 9.9697 111.883 10.1894 112.205 10.4545C112.531 10.7197 112.789 11.0398 112.978 11.4148C113.167 11.7898 113.262 12.2292 113.262 12.733C113.262 13.4148 113.088 14.0152 112.739 14.5341C112.391 15.0492 111.887 15.4527 111.228 15.7443C110.573 16.0322 109.779 16.1761 108.847 16.1761C107.942 16.1761 107.156 16.036 106.489 15.7557C105.827 15.4754 105.308 15.0663 104.933 14.5284C104.561 13.9905 104.361 13.3352 104.33 12.5625H106.404C106.435 12.9678 106.56 13.3049 106.779 13.5739C106.999 13.8428 107.285 14.0436 107.637 14.1761C107.993 14.3087 108.391 14.375 108.83 14.375C109.289 14.375 109.69 14.3068 110.035 14.1705C110.383 14.0303 110.656 13.8371 110.853 13.5909C111.05 13.3409 111.15 13.0492 111.154 12.7159C111.15 12.4129 111.061 12.1629 110.887 11.9659C110.713 11.7652 110.469 11.5985 110.154 11.4659C109.844 11.3295 109.48 11.2083 109.063 11.1023L107.739 10.7614C106.781 10.5152 106.024 10.142 105.467 9.64205C104.914 9.13826 104.637 8.4697 104.637 7.63636C104.637 6.95076 104.823 6.35038 105.194 5.83523C105.569 5.32008 106.078 4.92045 106.722 4.63636C107.366 4.34848 108.096 4.20455 108.91 4.20455C109.736 4.20455 110.459 4.34848 111.08 4.63636C111.705 4.92045 112.196 5.31629 112.552 5.82386C112.908 6.32765 113.092 6.9072 113.103 7.5625H111.075ZM129.465 7.5625C129.412 7.06629 129.189 6.67992 128.795 6.40341C128.405 6.12689 127.897 5.98864 127.272 5.98864C126.833 5.98864 126.456 6.05492 126.141 6.1875C125.827 6.32008 125.587 6.5 125.42 6.72727C125.253 6.95455 125.168 7.21402 125.164 7.50568C125.164 7.74811 125.219 7.95833 125.329 8.13636C125.443 8.31439 125.596 8.46591 125.789 8.59091C125.982 8.71212 126.196 8.81439 126.431 8.89773C126.666 8.98106 126.903 9.05114 127.141 9.10795L128.232 9.38068C128.672 9.48295 129.094 9.62121 129.499 9.79545C129.909 9.9697 130.274 10.1894 130.596 10.4545C130.922 10.7197 131.179 11.0398 131.369 11.4148C131.558 11.7898 131.653 12.2292 131.653 12.733C131.653 13.4148 131.479 14.0152 131.13 14.5341C130.782 15.0492 130.278 15.4527 129.619 15.7443C128.963 16.0322 128.17 16.1761 127.238 16.1761C126.333 16.1761 125.547 16.036 124.88 15.7557C124.217 15.4754 123.698 15.0663 123.323 14.5284C122.952 13.9905 122.751 13.3352 122.721 12.5625H124.795C124.825 12.9678 124.95 13.3049 125.17 13.5739C125.39 13.8428 125.676 14.0436 126.028 14.1761C126.384 14.3087 126.782 14.375 127.221 14.375C127.679 14.375 128.081 14.3068 128.426 14.1705C128.774 14.0303 129.047 13.8371 129.244 13.5909C129.441 13.3409 129.541 13.0492 129.545 12.7159C129.541 12.4129 129.452 12.1629 129.278 11.9659C129.104 11.7652 128.859 11.5985 128.545 11.4659C128.234 11.3295 127.871 11.2083 127.454 11.1023L126.13 10.7614C125.172 10.5152 124.414 10.142 123.857 9.64205C123.304 9.13826 123.028 8.4697 123.028 7.63636C123.028 6.95076 123.213 6.35038 123.585 5.83523C123.96 5.32008 124.469 4.92045 125.113 4.63636C125.757 4.34848 126.486 4.20455 127.301 4.20455C128.126 4.20455 128.85 4.34848 129.471 4.63636C130.096 4.92045 130.587 5.31629 130.943 5.82386C131.299 6.32765 131.482 6.9072 131.494 7.5625H129.465ZM143.64 4.36364V16H141.532V4.36364H143.64ZM153.923 16V4.36364H161.377V6.13068H156.031V9.28977H160.866V11.0568H156.031V16H153.923ZM170.502 4.36364H172.883L175.73 9.51136H175.843L178.69 4.36364H181.07L176.837 11.6591V16H174.735V11.6591L170.502 4.36364ZM9.75284 10.608L9.62216 12.9091H11.0028L10.8778 10.608L12.8097 11.875L13.5028 10.6705L11.4347 9.63636L13.5028 8.60227L12.8097 7.39773L10.8778 8.66477L11.0028 6.36364H9.62216L9.75284 8.66477L7.82102 7.39773L7.12784 8.60227L9.19034 9.63636L7.12784 10.6705L7.82102 11.875L9.75284 10.608ZM26.4403 10.608L26.3097 12.9091H27.6903L27.5653 10.608L29.4972 11.875L30.1903 10.6705L28.1222 9.63636L30.1903 8.60227L29.4972 7.39773L27.5653 8.66477L27.6903 6.36364H26.3097L26.4403 8.66477L24.5085 7.39773L23.8153 8.60227L25.8778 9.63636L23.8153 10.6705L24.5085 11.875L26.4403 10.608ZM43.1278 10.608L42.9972 12.9091H44.3778L44.2528 10.608L46.1847 11.875L46.8778 10.6705L44.8097 9.63636L46.8778 8.60227L46.1847 7.39773L44.2528 8.66477L44.3778 6.36364H42.9972L43.1278 8.66477L41.196 7.39773L40.5028 8.60227L42.5653 9.63636L40.5028 10.6705L41.196 11.875L43.1278 10.608Z" fill="url(#paint0_linear_1133_5)"/>
<defs>
<linearGradient id="paint0_linear_1133_5" x1="7.45273" y1="-6.6526" x2="215.525" y2="-6.6526" gradientUnits="userSpaceOnUse">
<stop offset="0.251308" stop-color="#616161"/>
<stop offset="0.623787" stop-color="#0891B2"/>
<stop offset="1" stop-color="#155E75"/>
</linearGradient>
</defs>
</svg>
